<svg width="50" height="50" viewBox="0 0 50 50" fill="none" xmlns="http://www.w3.org/2000/svg">
<circle cx="25" cy="25" r="25" fill="url(#paint0_linear_6233_3)"/>
<path d="M35.0575 19.9451C34.938 19.5012 34.704 19.0964 34.3789 18.7713C34.0538 18.4462 33.649 18.2121 33.205 18.0926C31.57 17.6501 25 17.6501 25 17.6501C25 17.6501 18.43 17.6501 16.795 18.0926C16.351 18.2121 15.9462 18.4462 15.6211 18.7713C15.296 19.0964 15.062 19.5012 14.9425 19.9451C14.6372 21.6126 14.4891 23.305 14.5 25.0001C14.4891 26.6953 14.6372 28.3877 14.9425 30.0551C15.062 30.4991 15.296 30.9039 15.6211 31.229C15.9462 31.5541 16.351 31.7881 16.795 31.9076C18.43 32.3501 25 32.3501 25 32.3501C25 32.3501 31.57 32.3501 33.205 31.9076C33.649 31.7881 34.0538 31.5541 34.3789 31.229C34.704 30.9039 34.938 30.4991 35.0575 30.0551C35.3628 28.3877 35.5109 26.6953 35.5 25.0001C35.5109 23.305 35.3628 21.6126 35.0575 19.9451ZM22.9 28.1501V21.8501L28.3525 25.0001L22.9 28.1501Z" fill="white"/>
<defs>
<linearGradient id="paint0_linear_6233_3" x1="5.1105" y1="-5.43152e-06" x2="48.2386" y2="3.21466" gradientUnits="userSpaceOnUse">
<stop stop-color="#C89AFC"/>
<stop offset="1" stop-color="#7C6AFA"/>
</linearGradient>
</defs>
</svg>
